<?xml version="1.0" standalone="yes"?>
<svg width="444" height="681">
<path style="fill:#ffffff; stroke:none;" d="M0 0L0 681L444 681L444 0L0 0z"/>
<path style="fill:#f49738; stroke:none;" d="M3 6C6.47953 13.4614 14.2316 19.2316 20 25C31.1246 36.1246 42.3279 47.6505 47.2539 63C53.5768 82.7023 46.3569 100.985 41.152 120C36.9308 135.421 34.9928 150.999 36.0895 167C37.3995 186.111 45.0884 205.218 55.6705 221C60.2313 227.802 72.31 237.206 73.7809 245C77.0486 262.315 55.9081 275.584 52.3179 290C48.6309 304.805 58.1116 320.49 57.9437 335C57.8445 343.567 50.7963 353.321 49 362L48 362L31.2191 330L22 316C21.0693 361.09 10.5814 404.662 46.0147 441C51.9012 447.037 57.9795 453.915 66 457C52.0876 476.71 49.9731 505.898 53.5903 529C54.4693 534.614 55.4817 547.441 60.51 550.972C65.8913 554.751 80.5275 552 87 552L87 551C82.1985 548.168 74.359 545.903 70.8187 541.606C66.4689 536.328 66.4788 526.479 65.831 520C64.1325 503.012 66.4131 487.807 73.0116 472C75.8642 465.166 81.3106 459.193 83 452C45.6894 435.902 31 396.632 31 359L32 359C37.2105 371.092 47.9501 388.6 61 393C59.4187 380.488 59.927 369.035 64.0039 357C66.1001 350.812 72.5089 343.484 72.4614 337C72.3642 323.74 61.3291 308.612 65.5679 295C67.1569 289.897 71.8263 285.564 74.5471 281C81.0466 270.097 88.4481 254.043 87.902 241.001C87.5428 232.421 72.2167 221.233 67.2052 214C56.1355 198.024 48.4863 177.559 48.0147 158C47.1781 123.306 72.1109 90.8267 58.9344 56C53.2623 41.0081 42.7144 28.6323 32 17C41.5189 17 50.7859 17.0972 60 19.8611C68.1784 22.3143 76.1696 25.2411 83 30.5286C115.341 55.5633 106.125 108.205 127.054 141C136.8 156.271 151.684 159.864 163.79 171.275C177.195 183.909 186.595 213.142 189 231L190 231C195.224 221.831 210.195 204.781 222 204.781C233.805 204.781 248.776 221.831 254 231L255 231C257.435 212.92 266.864 184.189 280.21 171.225C283.954 167.588 289.617 166.09 294 163.305C303.059 157.548 311.148 150.085 316.946 141C341.77 102.101 327.709 35.4841 382 20.1551C392.015 17.3273 401.679 17 412 17C404.029 25.6541 396.009 34.6322 390.312 45C368.782 84.1799 396.896 117.229 395.985 157C395.527 177.043 388.158 197.601 376.795 214C371.783 221.233 356.457 232.421 356.098 241.001C355.552 254.043 362.953 270.097 369.453 281C372.174 285.564 376.843 289.897 378.432 295C382.671 308.612 371.636 323.74 371.539 337C371.491 343.484 377.9 350.812 379.996 357C384.073 369.035 384.581 380.488 383 393C396.05 388.6 406.789 371.092 412 359L413 359C413 396.616 398.281 435.915 361 452C362.617 458.885 367.773 464.514 370.572 471C377.979 488.165 381.639 507.541 377.499 526C376.403 530.888 376.655 537.536 373.181 541.502C369.505 545.698 361.792 548.067 357 551L357 552C363.473 552 378.109 554.751 383.49 550.972C388.518 547.441 389.531 534.614 390.41 529C394.027 505.897 391.912 476.71 378 457C386.021 453.915 392.099 447.037 397.985 441C433.419 404.662 422.931 361.09 422 316L412.781 330L396 362L395 362C393.204 353.321 386.155 343.567 386.056 335C385.888 320.49 395.369 304.805 391.682 290C388.092 275.584 366.951 262.315 370.219 245C371.69 237.206 383.769 227.802 388.329 221C398.912 205.218 406.6 186.111 407.91 167C409.007 150.999 407.069 135.421 402.848 120C397.643 100.985 390.423 82.7023 396.746 63C401.672 47.6505 412.875 36.1246 424 25C429.768 19.2318 437.521 13.4613 441 6C426.369 6 411.624 2.48065 397 4.42438C387.103 5.73981 377.243 7.30188 368 11.287C317.37 33.1154 332.244 89.0101 308.546 129C303.136 138.129 296.018 146.108 287 151.771C282.049 154.88 274.917 156.445 270.761 160.499C260.372 170.634 252.226 191.062 249 205C242.47 199.822 230.816 189.781 222 189.781C213.184 189.781 201.53 199.822 195 205C191.774 191.062 183.628 170.634 173.239 160.499C169.083 156.445 161.951 154.88 157 151.771C147.916 146.067 140.889 138.19 135.454 129C111.802 89.0049 126.616 33.1097 76 11.287C66.7567 7.30194 56.8967 5.73981 47 4.42438C32.3762 2.48065 17.6307 6 3 6z"/>
<path style="fill:#010101; stroke:none;" d="M78 12L79 13L78 12z"/>
<path style="fill:#020202; stroke:none;" d="M365 12L366 13L365 12z"/>
<path style="fill:#010202; stroke:none;" d="M82 14L83 15L82 14z"/>
<path style="fill:#000101; stroke:none;" d="M361 14L362 15L361 14z"/>
<path style="fill:#1a1a1a; stroke:none;" d="M32 17C43.4796 34.3543 58.4993 47.4142 62.3843 69C68.0687 100.584 47.6272 131.797 49.0394 164C49.8421 182.305 57.3558 201.205 67.9097 216C72.6298 222.617 87.0816 233.184 87.7623 241.001C89.5406 261.418 71.6731 275.528 66.5131 293C62.0514 308.107 72.3826 322.41 72.0918 337C71.9493 344.152 64.8314 352.879 62.7207 360C59.4682 370.972 60.5204 381.829 61 393C47.5477 386.133 39.595 371.407 32 359L31 359C31 388.736 38.0765 417.191 61 437.829C67.3431 443.54 75.4136 450.45 84 452C70.7203 473.539 62.7676 495.284 65.8449 521C66.5951 527.269 66.6073 539.584 72.2785 543.587C84.9527 552.533 101.754 554.108 116.91 551.856C121.259 551.211 124.364 548.154 129 548.056C134.418 547.941 138.785 551.038 144 551.79C152.697 553.044 162.216 552 171 552C170.687 536.84 164.655 516.341 152 507L156 545C140.2 531.333 127.76 523.96 106 528C100.553 508.086 90.2877 485.15 113 470.627C118.565 467.069 132.322 476.139 139 477.486C149.049 479.514 160.536 475.849 170 478.434C182.617 481.88 193.116 502.592 197 514L198 514C197.98 506.605 196.722 498.799 193.688 492C191.817 487.808 187.475 482.767 189.512 478C191.025 474.457 195.142 470.03 199 469.118C202.699 468.243 207.343 470.889 211 471.536C216.916 472.583 224.008 472.329 230 471.909C234.662 471.582 240.492 467.891 245 469.068C248.628 470.015 252.199 473.833 253.972 477.001C256.898 482.227 252.418 487.282 250.312 492C247.278 498.8 246.02 506.605 246 514L247 514C250.849 502.695 261.413 481.731 274 478.438C283.826 475.867 296.451 478.907 307 476.905C312.831 475.799 323.785 467.971 329 469.596C349.226 475.899 349.763 511.198 338.301 524.812C334.086 529.819 320.251 526.661 314 528.015C302.401 530.526 296.557 537.598 288 545L292 507C278.798 516.745 274.222 536.512 273 552C281.761 552 291.335 553.098 300 551.787C305.248 550.993 309.497 547.92 315 548.055C319.633 548.168 322.742 551.211 327.09 551.856C342.145 554.093 360.4 552.821 372.487 542.787C377.679 538.476 377.505 526.177 378.166 520C380.909 494.382 373.261 473.508 360 452C368.586 450.45 376.657 443.54 383 437.829C405.973 417.147 413 388.779 413 359L412 359C404.405 371.407 396.452 386.133 383 393C383.483 381.759 384.555 371.05 381.279 360C379.169 352.879 372.051 344.152 371.908 337C371.617 322.41 381.949 308.107 377.487 293C372.327 275.528 354.459 261.418 356.238 241.001C356.918 233.184 371.37 222.617 376.09 216C386.669 201.171 394.156 182.357 394.961 164C396.369 131.884 375.804 100.449 381.465 69C385.334 47.4984 400.582 34.2612 412 17C402.111 17 392.63 17.8178 383 20.1157C328.225 33.1857 341.974 99.1779 318.189 138C312.348 147.535 304.324 155.815 295 161.996C290.167 165.2 283.386 167.061 279.379 171.225C265.476 185.672 258.92 211.998 255 231L254 231C250.164 221.028 233.637 204.426 222 204.426C210.363 204.426 193.836 221.029 190 231C180.577 212.224 179.8 189.068 165.39 172.133C160.767 166.699 151.846 164.14 146 159.96C136.335 153.049 128.434 143.456 122.89 133C106.524 102.139 113.255 53.1821 84 30.5286C76.8302 24.9766 68.6253 22.171 60 19.8488C50.9353 17.4083 41.3698 17 32 17z"/>
<path style="fill:#8c5926; stroke:none;" d="M44 17L44 18L49 18L44 17z"/>
<path style="fill:#764e23; stroke:none;" d="M394 17L394 18L399 18L394 17z"/>
<path style="fill:#905b26; stroke:none;" d="M388.667 18.3333L389.333 18.6667L388.667 18.3333z"/>
<path style="fill:#a46728; stroke:none;" d="M58.6667 19.3333L59.3333 19.6667L58.6667 19.3333z"/>
<path style="fill:#6a4723; stroke:none;" d="M384.667 19.3333L385.333 19.6667L384.667 19.3333z"/>
<path style="fill:#734c24; stroke:none;" d="M380.667 20.3333L381.333 20.6667L380.667 20.3333z"/>
<path style="fill:#010101; stroke:none;" d="M32 37L33 38L32 37z"/>
<path style="fill:#000101; stroke:none;" d="M411 37L412 38L411 37z"/>
<path style="fill:#838484; stroke:none;" d="M61 38L62 39L61 38z"/>
<path style="fill:#ffffff; stroke:none;" d="M62 38L62 39C100.761 66.304 78.3499 110.971 83.2894 149C86.1883 171.319 96.7435 191.449 110.424 209C116.589 216.908 130.915 226.087 132.891 236C136.421 253.71 133.14 275.341 126.55 292C123.908 298.678 117.923 305.216 116.314 312C113.375 324.388 117.91 340.063 121 352L122 352L126 319L127 319C131.114 351.551 138.542 386.381 159 413C147.262 409.182 134.391 409.72 123 405.895C109.924 401.504 100.306 388.624 96 376L95 376C95.1106 388.365 102.168 409.042 114 414.972C125.423 420.698 139.96 418.004 152 424.873C161.271 430.161 177.565 446.358 189.682 440.397C199.439 435.596 186.621 419.207 181 417L181 416C190.134 416.214 198.871 419.718 204.61 427.001C210.477 434.447 210.496 443.992 222 443.992C233.504 443.992 233.524 434.447 239.39 427.001C245.367 419.415 253.551 416.196 263 416L263 417C257.207 419.275 243.97 435.605 254.279 440.397C266.268 445.97 282.744 430.165 292 424.873C298.459 421.18 305.575 418.139 313 417.159C318.076 416.489 325.434 417.259 330 414.972C342.967 408.478 348.946 386.246 350 373L349 373C344.341 386.771 335.552 401.009 321 405.895C309.437 409.778 296.936 408.396 285 413C303.792 388.548 316.915 349.894 317 319L318 319L322 353L323 353C325.456 340.337 330.774 325.018 327.686 312C326.132 305.449 320.308 299.446 317.811 293C311.981 277.951 308.987 260.098 310.09 244C311.063 229.782 320.928 224.231 329.561 214C339.987 201.644 348.582 188.044 354.55 173C367.381 140.658 352.882 109.443 358.615 77C361.752 59.2477 372.94 51.8799 382 38C367.474 39.1881 359.336 50.8918 355.579 64C349.477 85.2875 352.951 108.008 345.772 129C339.699 146.756 331.358 161.977 318.715 175.985C312.392 182.991 303.694 187.392 297.329 194.184C290.799 201.152 287.121 212.194 283.815 221C276.628 240.143 273.903 261.686 274.001 282C274.043 290.692 276.781 299.303 275.714 308C272.903 330.897 261.055 350.811 245 367C256.727 336.601 257.408 303.596 246 273L245 273L243 299L242 299C239.815 287.404 237.776 276.242 231.536 266C229.662 262.924 226.798 257.618 222.965 256.752C218.507 255.744 215.056 261.937 213.09 265C206.16 275.8 203.001 288.276 203 301L201 301L199 273L198 273C185.782 305.77 190.39 333.107 198 366C182.447 350.12 171.022 330.29 168.286 308C167.145 298.705 169.985 289.317 170 280C170.032 260.03 166.981 238.798 159.935 220C156.773 211.563 152.905 200.836 146.671 194.184C140.306 187.392 131.608 182.991 125.285 175.985C112.86 162.217 104.716 147.377 98.5895 130C89.1052 103.099 101.672 43.1274 62 38z"/>
<path style="fill:#a1a1a0; stroke:none;" d="M65 38L65 39L68 39L65 38z"/>
<path style="fill:#a3a2a1; stroke:none;" d="M376.667 38.3333L377.333 38.6667L376.667 38.3333z"/>
<path style="fill:#838383; stroke:none;" d="M382 38L383 39L382 38z"/>
<path style="fill:#b4b4b3; stroke:none;" d="M62 39C69.1158 50.5411 75.4155 62.0529 75.9599 76C76.5282 90.5603 70.8062 103.894 68.4352 118C63.2587 148.798 64.9868 181.438 85.0147 207C90.0935 213.482 96.4511 221.48 104 225L89 184L90 184C93.4407 195.943 101.483 207.73 108.333 218C111.882 223.319 117.539 228.339 117.956 235C118.926 250.498 116.077 267.818 109.688 282C106.175 289.799 98.1369 297.866 96.3032 306C94.601 313.551 97.3801 323.471 98.5895 331C101.58 349.618 105.196 368.658 112.862 386C115.606 392.207 118.712 400.288 124.093 404.682C130.895 410.237 150.115 410.945 159 413C141.639 381.816 133.474 353.87 127 319L126 319L122 352L121 352C118.672 339.996 113.388 325.336 116.314 313C117.923 306.216 123.908 299.678 126.55 293C132.934 276.862 136.986 251.168 132.682 234C130.328 224.61 116.389 215.652 110.424 208C96.721 190.421 85.4258 169.556 83.1705 147C79.9696 114.986 101.527 57.433 62 39z"/>
<path style="fill:#a3a3a2; stroke:none;" d="M381 39L382 40L381 39z"/>
<path style="fill:#b4b4b3; stroke:none;" d="M323 353L322 353L318 319L317 319C316.718 352.599 300.885 384.468 285 413C292.41 410.977 299.291 408.233 307 407.286C311.467 406.738 316.161 407.739 319.907 404.682C325.288 400.29 328.395 392.205 331.138 386C338.804 368.658 342.42 349.618 345.41 331C346.621 323.464 349.392 313.558 347.697 306C345.852 297.772 337.846 289.845 334.312 282C327.923 267.818 325.074 250.498 326.044 235C326.461 228.339 332.118 223.319 335.667 218C342.517 207.73 350.559 195.943 354 184L355 184L341 224C348.869 220.33 355.412 211.879 360.522 205C379.27 179.761 380.581 147.846 375.565 118C373.244 104.191 367.735 91.2311 368.015 77C368.279 63.5854 374.511 52.757 380 41C371.778 44.837 366.515 54.0375 362.782 62C350.634 87.9109 363.468 118.746 360.83 146C358.604 169.004 347.583 190.031 333.576 208C327.611 215.652 313.672 224.61 311.318 234C306.902 251.614 311.39 277.425 317.811 294C320.308 300.446 326.132 306.449 327.686 313C330.756 325.944 324.637 340.325 323 353z"/>
<path style="fill:#000101; stroke:none;" d="M36 42L37 43L36 42z"/>
<path style="fill:#010101; stroke:none;" d="M407 42L408 43L407 42z"/>
<path style="fill:#747474; stroke:none;" d="M76 43L77 44L76 43z"/>
<path style="fill:#757575; stroke:none;" d="M367 43L368 44L367 43z"/>
<path style="fill:#878787; stroke:none;" d="M77 44L78 45L77 44z"/>
<path style="fill:#898989; stroke:none;" d="M366 44L367 45L366 44z"/>
<path style="fill:#888888; stroke:none;" d="M78 45L79 46L78 45z"/>
<path style="fill:#898989; stroke:none;" d="M365 45L366 46L365 45z"/>
<path style="fill:#767676; stroke:none;" d="M79 46L80 47L79 46M364 46L365 47L364 46z"/>
<path style="fill:#7d7d7d; stroke:none;" d="M82 50L83 51L82 50z"/>
<path style="fill:#7f7f7f; stroke:none;" d="M361 50L362 51L361 50z"/>
<path style="fill:#010101; stroke:none;" d="M43 53L44 54L43 53z"/>
<path style="fill:#000100; stroke:none;" d="M400 53L401 54L400 53z"/>
<path style="fill:#010101; stroke:none;" d="M44 55L45 56L44 55z"/>
<path style="fill:#000101; stroke:none;" d="M399 55L400 56L399 55z"/>
<path style="fill:#767676; stroke:none;" d="M87 60L88 61L87 60z"/>
<path style="fill:#777677; stroke:none;" d="M356 60L357 61L356 60z"/>
<path style="fill:#cbcaca; stroke:none;" d="M88.3333 63.6667L88.6667 64.3333L88.3333 63.6667M355.333 63.6667L355.667 64.3333L355.333 63.6667z"/>
<path style="fill:#9d6328; stroke:none;" d="M61.3333 64.6667L61.6667 65.3333L61.3333 64.6667z"/>
<path style="fill:#9d6327; stroke:none;" d="M382.333 64.6667L382.667 65.3333L382.333 64.6667z"/>
<path style="fill:#4f4f4f; stroke:none;" d="M74.3333 65.6667L74.6667 66.3333L74.3333 65.6667z"/>
<path style="fill:#4e4e4e; stroke:none;" d="M369.333 65.6667L369.667 66.3333L369.333 65.6667z"/>
<path style="fill:#ababab; stroke:none;" d="M89.3333 66.6667L89.6667 67.3333L89.3333 66.6667z"/>
<path style="fill:#adadad; stroke:none;" d="M354.333 66.6667L354.667 67.3333L354.333 66.6667z"/>
<path style="fill:#7f5224; stroke:none;" d="M104.333 67.6667L104.667 68.3333L104.333 67.6667z"/>
<path style="fill:#805325; stroke:none;" d="M339.333 67.6667L339.667 68.3333L339.333 67.6667z"/>
<path style="fill:#9b6227; stroke:none;" d="M381 68L381 72L382 72L381 68z"/>
<path style="fill:#b6712a; stroke:none;" d="M62 69L62 73L63 73L62 69z"/>
<path style="fill:#a3a2a2; stroke:none;" d="M90.3333 70.6667L90.6667 71.3333L90.3333 70.6667M353.333 70.6667L353.667 71.3333L353.333 70.6667z"/>
<path style="fill:#020202; stroke:none;" d="M49 71L50 72L49 71z"/>
<path style="fill:#7b7c7c; stroke:none;" d="M75 71L75 74L76 74L75 71z"/>
<path style="fill:#865625; stroke:none;" d="M105.333 71.6667L105.667 72.3333L105.333 71.6667z"/>
<path style="fill:#7a7a7b; stroke:none;" d="M368 71L368 74L369 74L368 71z"/>
<path style="fill:#010101; stroke:none;" d="M394 71L395 72L394 71z"/>
<path style="fill:#767676; stroke:none;" d="M91.3333 74.6667L91.6667 75.3333L91.3333 74.6667z"/>
<path style="fill:#777677; stroke:none;" d="M352.333 74.6667L352.667 75.3333L352.333 74.6667z"/>
<path style="fill:#cbcaca; stroke:none;" d="M91.3333 76.6667L91.6667 77.3333L91.3333 76.6667z"/>
<path style="fill:#724b24; stroke:none;" d="M106.333 76.6667L106.667 77.3333L106.333 76.6667z"/>
<path style="fill:#714b23; stroke:none;" d="M337.333 76.6667L337.667 77.3333L337.333 76.6667z"/>
<path style="fill:#cbcaca; stroke:none;" d="M352.333 76.6667L352.667 77.3333L352.333 76.6667z"/>
<path style="fill:#676767; stroke:none;" d="M92.3333 80.6667L92.6667 81.3333L92.3333 80.6667z"/>
<path style="fill:#915c26; stroke:none;" d="M107 80L107 83L108 83L107 80z"/>
<path style="fill:#935e28; stroke:none;" d="M336.333 80.6667L336.667 81.3333L336.333 80.6667z"/>
<path style="fill:#686867; stroke:none;" d="M351.333 80.6667L351.667 81.3333L351.333 80.6667z"/>
<path style="fill:#9e9e9e; stroke:none;" d="M92 82L92 85L93 85L92 82z"/>
<path style="fill:#cfcfcf; stroke:none;" d="M351 82L351 87L352 87L351 82z"/>
<path style="fill:#a66828; stroke:none;" d="M62 85L62 88L63 88L62 85z"/>
<path style="fill:#885726; stroke:none;" d="M108 85L108 88L109 88L108 85z"/>
<path style="fill:#020202; stroke:none;" d="M322 85L323 86L322 85z"/>
<path style="fill:#895827; stroke:none;" d="M335.333 85.6667L335.667 86.3333L335.333 85.6667z"/>
<path style="fill:#a86929; stroke:none;" d="M381 85L381 88L382 88L381 85z"/>
<path style="fill:#6b6b6c; stroke:none;" d="M93 89L93 93L94 93L93 89z"/>
<path style="fill:#787778; stroke:none;" d="M350 89L350 95L351 95L350 89z"/>
<path style="fill:#7b5025; stroke:none;" d="M109.333 90.6667L109.667 91.3333L109.333 90.6667z"/>
<path style="fill:#7c5125; stroke:none;" d="M334.333 90.6667L334.667 91.3333L334.333 90.6667z"/>
<path style="fill:#7f7f80; stroke:none;" d="M74.3333 92.6667L74.6667 93.3333L74.3333 92.6667z"/>
<path style="fill:#7f8080; stroke:none;" d="M369.333 92.6667L369.667 93.3333L369.333 92.6667z"/>
<path style="fill:#7e5125; stroke:none;" d="M61 93L61 96L62 96L61 93z"/>
<path style="fill:#929292; stroke:none;" d="M93 93L93 97L94 97L93 93z"/>
<path style="fill:#7e5226; stroke:none;" d="M382 93L382 96L383 96L382 93z"/>
<path style="fill:#684622; stroke:none;" d="M110.333 95.6667L110.667 96.3333L110.333 95.6667z"/>
<path style="fill:#6a4723; stroke:none;" d="M333.333 95.6667L333.667 96.3333L333.333 95.6667z"/>
<path style="fill:#a4a4a4; stroke:none;" d="M350 95L350 102L351 102L350 95z"/>
<path style="fill:#b7b6b6; stroke:none;" d="M93 97L93 105L94 105L93 97z"/>
<path style="fill:#734b23; stroke:none;" d="M60.3333 98.6667L60.6667 99.3333L60.3333 98.6667z"/>
<path style="fill:#724b22; stroke:none;" d="M383.333 98.6667L383.667 99.3333L383.333 98.6667z"/>
<path style="fill:#7e5125; stroke:none;" d="M111.333 99.6667L111.667 100.333L111.333 99.6667z"/>
<path style="fill:#7f5226; stroke:none;" d="M332.333 99.6667L332.667 100.333L332.333 99.6667z"/>
<path style="fill:#774f24; stroke:none;" d="M59.3333 102.667L59.6667 103.333L59.3333 102.667M384.333 102.667L384.667 103.333L384.333 102.667z"/>
<path style="fill:#845524; stroke:none;" d="M112.333 103.667L112.667 104.333L112.333 103.667z"/>
<path style="fill:#674523; stroke:none;" d="M58.3333 106.667L58.6667 107.333L58.3333 106.667z"/>
<path style="fill:#7d7d7d; stroke:none;" d="M94 107L94 112L95 112L94 107z"/>
<path style="fill:#7b5126; stroke:none;" d="M113.333 107.667L113.667 108.333L113.333 107.667z"/>
<path style="fill:#7c7d7d; stroke:none;" d="M349.333 109.667L349.667 110.333L349.333 109.667z"/>
<path style="fill:#b8b8b8; stroke:none;" d="M349 111L349 114L350 114L349 111z"/>
<path style="fill:#000101; stroke:none;" d="M43 112L44 113L43 112M400 112L401 113L400 112z"/>
<path style="fill:#828383; stroke:none;" d="M95.3333 116.667L95.6667 117.333L95.3333 116.667z"/>
<path style="fill:#838383; stroke:none;" d="M348 116L348 119L349 119L348 116z"/>
<path style="fill:#828282; stroke:none;" d="M96.3333 121.667L96.6667 122.333L96.3333 121.667z"/>
<path style="fill:#838383; stroke:none;" d="M347.333 121.667L347.667 122.333L347.333 121.667z"/>
<path style="fill:#787778; stroke:none;" d="M67.3333 123.667L67.6667 124.333L67.3333 123.667z"/>
<path style="fill:#777777; stroke:none;" d="M376.333 123.667L376.667 124.333L376.333 123.667z"/>
<path style="fill:#b6b6b6; stroke:none;" d="M97.3333 126.667L97.6667 127.333L97.3333 126.667z"/>
<path style="fill:#b8b7b7; stroke:none;" d="M346.333 126.667L346.667 127.333L346.333 126.667z"/>
<path style="fill:#714b23; stroke:none;" d="M52.3333 127.667L52.6667 128.333L52.3333 127.667z"/>
<path style="fill:#724b23; stroke:none;" d="M391.333 127.667L391.667 128.333L391.333 127.667z"/>
<path style="fill:#000101; stroke:none;" d="M135 129L136 130L135 129M308 129L309 130L308 129z"/>
<path style="fill:#744b23; stroke:none;" d="M51.3333 131.667L51.6667 132.333L51.3333 131.667z"/>
<path style="fill:#764d25; stroke:none;" d="M392.333 131.667L392.667 132.333L392.333 131.667z"/>
<path style="fill:#915c26; stroke:none;" d="M50 135L50 138L51 138L50 135z"/>
<path style="fill:#935d28; stroke:none;" d="M393.333 135.667L393.667 136.333L393.333 135.667z"/>
<path style="fill:#010201; stroke:none;" d="M141 138L142 139L141 138z"/>
<path style="fill:#674523; stroke:none;" d="M49 140L49 144L50 144L49 140M394 140L394 144L395 144L394 140z"/>
<path style="fill:#606060; stroke:none;" d="M65 141L65 153L66 153L65 141z"/>
<path style="fill:#868686; stroke:none;" d="M102 141L103 142L102 141z"/>
<path style="fill:#858585; stroke:none;" d="M341 141L342 142L341 141z"/>
<path style="fill:#5c5c5c; stroke:none;" d="M378 141L378 151L379 151L378 141z"/>
<path style="fill:#794f24; stroke:none;" d="M48 148L48 160L49 160L48 148z"/>
<path style="fill:#7d5125; stroke:none;" d="M395 148L395 163L396 163L395 148z"/>
<path style="fill:#919292; stroke:none;" d="M109 155L110 156L109 155z"/>
<path style="fill:#919191; stroke:none;" d="M334 155L335 156L334 155z"/>
<path style="fill:#717070; stroke:none;" d="M111 158L112 159L111 158z"/>
<path style="fill:#bb7328; stroke:none;" d="M48 160L48 164L49 164L48 160z"/>
<path style="fill:#797979; stroke:none;" d="M66 160L66 163L67 163L66 160z"/>
<path style="fill:#787778; stroke:none;" d="M377 160L377 163L378 163L377 160z"/>
<path style="fill:#828383; stroke:none;" d="M115 164L116 165L115 164M328 164L329 165L328 164z"/>
<path style="fill:#714a23; stroke:none;" d="M49 168L49 171L50 171L49 168z"/>
<path style="fill:#939394; stroke:none;" d="M118 168L119 169L118 168M325 168L326 169L325 168z"/>
<path style="fill:#714b23; stroke:none;" d="M394 168L394 171L395 171L394 168z"/>
<path style="fill:#784f24; stroke:none;" d="M50 174L50 177L51 177L50 174z"/>
<path style="fill:#774f24; stroke:none;" d="M393 174L393 177L394 177L393 174z"/>
<path style="fill:#a5a4a5; stroke:none;" d="M124 175L125 176L124 175z"/>
<path style="fill:#a4a4a4; stroke:none;" d="M319 175L320 176L319 175z"/>
<path style="fill:#9b9a9a; stroke:none;" d="M125 176L126 177L125 176z"/>
<path style="fill:#9c9b9b; stroke:none;" d="M318 176L319 177L318 176z"/>
<path style="fill:#979797; stroke:none;" d="M126 177L127 178L126 177z"/>
<path style="fill:#979697; stroke:none;" d="M317 177L318 178L317 177z"/>
<path style="fill:#919191; stroke:none;" d="M127 178L128 179L127 178z"/>
<path style="fill:#919292; stroke:none;" d="M316 178L317 179L316 178z"/>
<path style="fill:#975f26; stroke:none;" d="M51.3333 179.667L51.6667 180.333L51.3333 179.667z"/>
<path style="fill:#9b9a9a; stroke:none;" d="M128 179L129 180L128 179z"/>
<path style="fill:#9a9a9a; stroke:none;" d="M315 179L316 180L315 179z"/>
<path style="fill:#986026; stroke:none;" d="M392.333 179.667L392.667 180.333L392.333 179.667z"/>
<path style="fill:#a2a2a2; stroke:none;" d="M129 180L130 181L129 180z"/>
<path style="fill:#a2a1a0; stroke:none;" d="M314 180L315 181L314 180z"/>
<path style="fill:#3c3c3c; stroke:none;" d="M88.3333 182.667L88.6667 183.333L88.3333 182.667z"/>
<path style="fill:#3e3e3e; stroke:none;" d="M355.333 182.667L355.667 183.333L355.333 182.667z"/>
<path style="fill:#919292; stroke:none;" d="M136 186L137 187L136 186z"/>
<path style="fill:#939394; stroke:none;" d="M307 186L308 187L307 186z"/>
<path style="fill:#8d8d8d; stroke:none;" d="M140 189L141 190L140 189M303 189L304 190L303 189z"/>
<path style="fill:#7e7e7e; stroke:none;" d="M143 191L144 192L143 191z"/>
<path style="fill:#808081; stroke:none;" d="M300 191L301 192L300 191z"/>
<path style="fill:#767676; stroke:none;" d="M148 196L149 197L148 196M295 196L296 197L295 196z"/>
<path style="fill:#000100; stroke:none;" d="M43 197L44 198L43 197z"/>
<path style="fill:#000101; stroke:none;" d="M400 197L401 198L400 197z"/>
<path style="fill:#7c7c7c; stroke:none;" d="M151 201L152 202L151 201z"/>
<path style="fill:#7d7d7e; stroke:none;" d="M292 201L293 202L292 201z"/>
<path style="fill:#000101; stroke:none;" d="M194 202L195 203L194 202M198 202L199 203L198 202z"/>
<path style="fill:#010101; stroke:none;" d="M245 202L246 203L245 202M249 202L250 203L249 202z"/>
<path style="fill:#8b8c8c; stroke:none;" d="M152 203L153 204L152 203z"/>
<path style="fill:#8b8b8b; stroke:none;" d="M291 203L292 204L291 203z"/>
<path style="fill:#000101; stroke:none;" d="M46 204L47 205L46 204M397 204L398 205L397 204z"/>
<path style="fill:#8d8d8d; stroke:none;" d="M153 205L154 206L153 205M290 205L291 206L290 205z"/>
<path style="fill:#858585; stroke:none;" d="M154 207L155 208L154 207M289 207L290 208L289 207z"/>
<path style="fill:#727272; stroke:none;" d="M155 209L156 210L155 209z"/>
<path style="fill:#737373; stroke:none;" d="M288 209L289 210L288 209z"/>
<path style="fill:#010101; stroke:none;" d="M49 210L50 211L49 210z"/>
<path style="fill:#010201; stroke:none;" d="M394 210L395 211L394 210z"/>
<path style="fill:#909090; stroke:none;" d="M157 214L158 215L157 214z"/>
<path style="fill:#8f8f8f; stroke:none;" d="M286 214L287 215L286 214z"/>
<path style="fill:#7a7b7b; stroke:none;" d="M284 219L285 220L284 219z"/>
<path style="fill:#000101; stroke:none;" d="M55 220L56 221L55 220z"/>
<path style="fill:#010201; stroke:none;" d="M388 220L389 221L388 220z"/>
<path style="fill:#6b4723; stroke:none;" d="M187.333 223.667L187.667 224.333L187.333 223.667M256.333 223.667L256.667 224.333L256.333 223.667z"/>
<path style="fill:#535354; stroke:none;" d="M339 226L342 224L339 226z"/>
<path style="fill:#000100; stroke:none;" d="M60 227L61 228L60 227z"/>
<path style="fill:#8c5a27; stroke:none;" d="M188.333 227.667L188.667 228.333L188.333 227.667M255.333 227.667L255.667 228.333L255.333 227.667z"/>
<path style="fill:#010101; stroke:none;" d="M383 227L384 228L383 227z"/>
<path style="fill:#bebdbd; stroke:none;" d="M162.333 228.667L162.667 229.333L162.333 228.667z"/>
<path style="fill:#c0bfbf; stroke:none;" d="M281.333 228.667L281.667 229.333L281.333 228.667z"/>
<path style="fill:#a09f9f; stroke:none;" d="M163.333 231.667L163.667 232.333L163.333 231.667M280.333 231.667L280.667 232.333L280.333 231.667z"/>
<path style="fill:#000101; stroke:none;" d="M379 232L380 233L379 232z"/>
<path style="fill:#b0afaf; stroke:none;" d="M164.333 235.667L164.667 236.333L164.333 235.667z"/>
<path style="fill:#b0b0b0; stroke:none;" d="M279.333 235.667L279.667 236.333L279.333 235.667z"/>
<path style="fill:#abaaab; stroke:none;" d="M165.333 239.667L165.667 240.333L165.333 239.667M278.333 239.667L278.667 240.333L278.333 239.667z"/>
<path style="fill:#dadada; stroke:none;" d="M133 240L133 262L134 262L133 240z"/>
<path style="fill:#dedede; stroke:none;" d="M310 240L310 263L311 263L310 240z"/>
<path style="fill:#919292; stroke:none;" d="M166.333 243.667L166.667 244.333L166.333 243.667z"/>
<path style="fill:#919191; stroke:none;" d="M277.333 243.667L277.667 244.333L277.333 243.667z"/>
<path style="fill:#000101; stroke:none;" d="M74 244L75 245L74 244M369 244L370 245L369 244z"/>
<path style="fill:#8d8d8d; stroke:none;" d="M167.333 248.667L167.667 249.333L167.333 248.667M276 248L276 251L277 251L276 248z"/>
<path style="fill:#010201; stroke:none;" d="M73 249L74 250L73 249z"/>
<path style="fill:#845424; stroke:none;" d="M86.3333 249.667L86.6667 250.333L86.3333 249.667z"/>
<path style="fill:#865625; stroke:none;" d="M357.333 249.667L357.667 250.333L357.333 249.667z"/>
<path style="fill:#000101; stroke:none;" d="M370 249L371 250L370 249z"/>
<path style="fill:#686969; stroke:none;" d="M168.333 253.667L168.667 254.333L168.333 253.667z"/>
<path style="fill:#686868; stroke:none;" d="M275.333 253.667L275.667 254.333L275.333 253.667z"/>
<path style="fill:#acadad; stroke:none;" d="M168.333 255.667L168.667 256.333L168.333 255.667z"/>
<path style="fill:#c6c6c6; stroke:none;" d="M221.667 255.333L222.333 255.667L221.667 255.333z"/>
<path style="fill:#acacac; stroke:none;" d="M275.333 255.667L275.667 256.333L275.333 255.667z"/>
<path style="fill:#585858; stroke:none;" d="M169 260L169 263L170 263L169 260z"/>
<path style="fill:#a09f9f; stroke:none;" d="M216 260L217 261L216 260z"/>
<path style="fill:#9f9e9e; stroke:none;" d="M227 260L228 261L227 260z"/>
<path style="fill:#595859; stroke:none;" d="M274 260L274 263L275 263L274 260z"/>
<path style="fill:#9f9f9f; stroke:none;" d="M169 263L169 266L170 266L169 263z"/>
<path style="fill:#9f9e9e; stroke:none;" d="M274 263L274 266L275 266L274 263z"/>
<path style="fill:#868787; stroke:none;" d="M213 264L214 265L213 264z"/>
<path style="fill:#858686; stroke:none;" d="M230 264L231 265L230 264z"/>
<path style="fill:#888888; stroke:none;" d="M200 268L199 270L201 270L200 268z"/>
<path style="fill:#898989; stroke:none;" d="M243 268L243 270L245 270L243 268z"/>
<path style="fill:#717070; stroke:none;" d="M210 269L211 270L210 269z"/>
<path style="fill:#bebebe; stroke:none;" d="M199 270L198 273L199 270z"/>
<path style="fill:#eeeeed; stroke:none;" d="M244.333 270.667L244.667 271.333L244.333 270.667z"/>
<path style="fill:#4f4e4e; stroke:none;" d="M170 271L170 284L171 284L170 271z"/>
<path style="fill:#757676; stroke:none;" d="M209 271L210 272L209 271z"/>
<path style="fill:#747474; stroke:none;" d="M234 271L235 272L234 271z"/>
<path style="fill:#4e4e4e; stroke:none;" d="M273 271L273 284L274 284L273 271z"/>
<path style="fill:#b1b0b0; stroke:none;" d="M244 272L244 274L246 272L244 272z"/>
<path style="fill:#646463; stroke:none;" d="M199.333 273.667L199.667 274.333L199.333 273.667z"/>
<path style="fill:#8a8a8a; stroke:none;" d="M197 274L198 275L197 274M246 274L247 275L246 274z"/>
<path style="fill:#b5b6b5; stroke:none;" d="M198 278L198 285L199 285L198 278z"/>
<path style="fill:#b5b5b4; stroke:none;" d="M245 278L245 285L246 285L245 278z"/>
<path style="fill:#cacac9; stroke:none;" d="M195.333 279.667L195.667 280.333L195.333 279.667M248.333 279.667L248.667 280.333L248.333 279.667z"/>
<path style="fill:#000101; stroke:none;" d="M57 282L58 283L57 282z"/>
<path style="fill:#cac9c9; stroke:none;" d="M194.333 282.667L194.667 283.333L194.333 282.667z"/>
<path style="fill:#c9c9c9; stroke:none;" d="M249.333 282.667L249.667 283.333L249.333 282.667z"/>
<path style="fill:#000101; stroke:none;" d="M386 282L387 283L386 282z"/>
<path style="fill:#afb0af; stroke:none;" d="M193.333 285.667L193.667 286.333L193.333 285.667z"/>
<path style="fill:#a8a8a8; stroke:none;" d="M204.333 285.667L204.667 286.333L204.333 285.667z"/>
<path style="fill:#a6a6a7; stroke:none;" d="M239.333 285.667L239.667 286.333L239.333 285.667z"/>
<path style="fill:#afb0af; stroke:none;" d="M250.333 285.667L250.667 286.333L250.333 285.667z"/>
<path style="fill:#c4c3c3; stroke:none;" d="M169 288L169 291L170 291L169 288z"/>
<path style="fill:#b9b9b9; stroke:none;" d="M192.333 289.667L192.667 290.333L192.333 289.667z"/>
<path style="fill:#858687; stroke:none;" d="M203.333 289.667L203.667 290.333L203.333 289.667z"/>
<path style="fill:#878788; stroke:none;" d="M240.333 289.667L240.667 290.333L240.333 289.667z"/>
<path style="fill:#5d5d5d; stroke:none;" d="M244 289L244 292L245 292L244 289z"/>
<path style="fill:#b9b9b8; stroke:none;" d="M251.333 289.667L251.667 290.333L251.333 289.667z"/>
<path style="fill:#b0b0b0; stroke:none;" d="M274 289L274 292L275 292L274 289z"/>
<path style="fill:#808181; stroke:none;" d="M199 290L199 293L200 293L199 290z"/>
<path style="fill:#7d7e7e; stroke:none;" d="M169 291L169 294L170 294L169 291z"/>
<path style="fill:#616160; stroke:none;" d="M274.333 292.667L274.667 293.333L274.333 292.667z"/>
<path style="fill:#4c351e; stroke:none;" d="M65 293L65 302L66 302L65 293z"/>
<path style="fill:#9c9c9c; stroke:none;" d="M191.333 293.667L191.667 294.333L191.333 293.667z"/>
<path style="fill:#9d9d9d; stroke:none;" d="M252.333 293.667L252.667 294.333L252.333 293.667z"/>
<path style="fill:#4d361f; stroke:none;" d="M378 293L378 302L379 302L378 293z"/>
<path style="fill:#5e5f5f; stroke:none;" d="M202.333 294.667L202.667 295.333L202.333 294.667z"/>
<path style="fill:#5f5f5f; stroke:none;" d="M241 294L241 297L242 297L241 294z"/>
<path style="fill:#8e8e8d; stroke:none;" d="M200.333 295.667L200.667 296.333L200.333 295.667z"/>
<path style="fill:#8e8e8f; stroke:none;" d="M243.333 295.667L243.667 296.333L243.333 295.667z"/>
<path style="fill:#cbcaca; stroke:none;" d="M202 296L201 301L202 296z"/>
<path style="fill:#989898; stroke:none;" d="M168 297L168 310L169 310L168 297z"/>
<path style="fill:#999999; stroke:none;" d="M275 297L275 310L276 310L275 297z"/>
<path style="fill:#848484; stroke:none;" d="M190.333 298.667L190.667 299.333L190.333 298.667M253.333 298.667L253.667 299.333L253.333 298.667z"/>
<path style="fill:#cac9c9; stroke:none;" d="M190.333 300.667L190.667 301.333L190.333 300.667M253.333 300.667L253.667 301.333L253.333 300.667z"/>
<path style="fill:#555454; stroke:none;" d="M189 304L189 307L190 307L189 304z"/>
<path style="fill:#545454; stroke:none;" d="M254 304L254 307L255 307L254 304z"/>
<path style="fill:#717171; stroke:none;" d="M95 305L95 308L96 308L95 305M348 305L348 308L349 308L348 305z"/>
<path style="fill:#c0bfbf; stroke:none;" d="M189 307L189 312L190 312L189 307z"/>
<path style="fill:#e0e0e0; stroke:none;" d="M254 307L254 322L255 322L254 307z"/>
<path style="fill:#7a7a7a; stroke:none;" d="M169 313L169 316L170 316L169 313M274 313L274 316L275 316L274 313z"/>
<path style="fill:#865626; stroke:none;" d="M67 315L67 318L68 318L67 315z"/>
<path style="fill:#6c6c6c; stroke:none;" d="M96 315L96 318L97 318L96 315M347 315L347 318L348 318L347 315z"/>
<path style="fill:#865626; stroke:none;" d="M376 315L376 318L377 318L376 315z"/>
<path style="fill:#b0b0b0; stroke:none;" d="M170.333 319.667L170.667 320.333L170.333 319.667z"/>
<path style="fill:#b2b2b2; stroke:none;" d="M273.333 319.667L273.667 320.333L273.333 319.667z"/>
<path style="fill:#855524; stroke:none;" d="M68 320L68 323L69 323L68 320z"/>
<path style="fill:#865625; stroke:none;" d="M375 320L375 323L376 323L375 320z"/>
<path style="fill:#b6b5b5; stroke:none;" d="M189 322L189 327L190 327L189 322z"/>
<path style="fill:#b6b6b6; stroke:none;" d="M254 322L254 329L255 329L254 322z"/>
<path style="fill:#666666; stroke:none;" d="M97.3333 323.667L97.6667 324.333L97.3333 323.667z"/>
<path style="fill:#656564; stroke:none;" d="M346.333 323.667L346.667 324.333L346.333 323.667z"/>
<path style="fill:#7f7f7f; stroke:none;" d="M189 327L189 330L190 330L189 327z"/>
<path style="fill:#8d8d8d; stroke:none;" d="M173 329L174 330L173 329z"/>
<path style="fill:#595959; stroke:none;" d="M254 329L254 332L255 332L254 329z"/>
<path style="fill:#8d8d8d; stroke:none;" d="M270 329L271 330L270 329z"/>
<path style="fill:#575757; stroke:none;" d="M98.3333 330.667L98.6667 331.333L98.3333 330.667z"/>
<path style="fill:#585859; stroke:none;" d="M345.333 330.667L345.667 331.333L345.333 330.667z"/>
<path style="fill:#010101; stroke:none;" d="M57 331L58 332L57 331z"/>
<path style="fill:#010202; stroke:none;" d="M386 331L387 332L386 331z"/>
<path style="fill:#b4b4b3; stroke:none;" d="M190.333 334.667L190.667 335.333L190.333 334.667z"/>
<path style="fill:#b3b4b3; stroke:none;" d="M253.333 334.667L253.667 335.333L253.333 334.667z"/>
<path style="fill:#a2a2a2; stroke:none;" d="M268 334L269 335L268 334z"/>
<path style="fill:#000101; stroke:none;" d="M20 335L21 336L20 335M423 335L424 336L423 335z"/>
<path style="fill:#595859; stroke:none;" d="M99.3333 336.667L99.6667 337.333L99.3333 336.667z"/>
<path style="fill:#959595; stroke:none;" d="M176 336L177 337L176 336z"/>
<path style="fill:#6b6b6b; stroke:none;" d="M190.333 336.667L190.667 337.333L190.333 336.667z"/>
<path style="fill:#6a6a6a; stroke:none;" d="M253.333 336.667L253.667 337.333L253.333 336.667z"/>
<path style="fill:#969696; stroke:none;" d="M267 336L268 337L267 336z"/>
<path style="fill:#595959; stroke:none;" d="M344.333 336.667L344.667 337.333L344.333 336.667z"/>
<path style="fill:#919191; stroke:none;" d="M177 338L178 339L177 338z"/>
<path style="fill:#929293; stroke:none;" d="M266 338L267 339L266 338z"/>
<path style="fill:#010101; stroke:none;" d="M36 340L37 341L36 340z"/>
<path style="fill:#a09f9f; stroke:none;" d="M178 340L179 341L178 340z"/>
<path style="fill:#a0a0a0; stroke:none;" d="M265 340L266 341L265 340z"/>
<path style="fill:#000101; stroke:none;" d="M407 340L408 341L407 340z"/>
<path style="fill:#858585; stroke:none;" d="M191 341L191 344L192 344L191 341z"/>
<path style="fill:#848484; stroke:none;" d="M252.333 341.667L252.667 342.333L252.333 341.667z"/>
<path style="fill:#878888; stroke:none;" d="M181 345L182 346L181 345M262 345L263 346L262 345z"/>
<path style="fill:#727272; stroke:none;" d="M192.333 346.667L192.667 347.333L192.333 346.667M251.333 346.667L251.667 347.333L251.333 346.667z"/>
<path style="fill:#757575; stroke:none;" d="M183 348L184 349L183 348z"/>
<path style="fill:#767676; stroke:none;" d="M260 348L261 349L260 348z"/>
<path style="fill:#747474; stroke:none;" d="M193.333 350.667L193.667 351.333L193.333 350.667z"/>
<path style="fill:#727272; stroke:none;" d="M250.333 350.667L250.667 351.333L250.333 350.667z"/>
<path style="fill:#858585; stroke:none;" d="M185 351L186 352L185 351z"/>
<path style="fill:#848484; stroke:none;" d="M258 351L259 352L258 351z"/>
<path style="fill:#010101; stroke:none;" d="M43 353L44 354L43 353z"/>
<path style="fill:#000101; stroke:none;" d="M400 353L401 354L400 353z"/>
<path style="fill:#565656; stroke:none;" d="M194.333 354.667L194.667 355.333L194.333 354.667z"/>
<path style="fill:#565555; stroke:none;" d="M249.333 354.667L249.667 355.333L249.333 354.667z"/>
<path style="fill:#828383; stroke:none;" d="M188 355L189 356L188 355z"/>
<path style="fill:#808181; stroke:none;" d="M255 355L256 356L255 355z"/>
<path style="fill:#605f5f; stroke:none;" d="M195.333 357.667L195.667 358.333L195.333 357.667z"/>
<path style="fill:#5f5f5f; stroke:none;" d="M248.333 357.667L248.667 358.333L248.333 357.667z"/>
<path style="fill:#9b9b9a; stroke:none;" d="M192 360L193 361L192 360z"/>
<path style="fill:#636363; stroke:none;" d="M196.333 360.667L196.667 361.333L196.333 360.667z"/>
<path style="fill:#656564; stroke:none;" d="M247.333 360.667L247.667 361.333L247.333 360.667z"/>
<path style="fill:#9c9c9c; stroke:none;" d="M251 360L252 361L251 360z"/>
<path style="fill:#808181; stroke:none;" d="M193 361L194 362L193 361z"/>
<path style="fill:#818181; stroke:none;" d="M250 361L251 362L250 361z"/>
<path style="fill:#727272; stroke:none;" d="M194 362L195 363L194 362z"/>
<path style="fill:#747474; stroke:none;" d="M249 362L250 363L249 362z"/>
<path style="fill:#4e4d4d; stroke:none;" d="M197 363L198 366L197 363M246 363L246 366L248 365L248 364L246 363z"/>
<path style="fill:#cbcaca; stroke:none;" d="M245.333 365.667L245.667 366.333L245.333 365.667z"/>
<path style="fill:#704a24; stroke:none;" d="M60 370L60 375L61 375L60 370z"/>
<path style="fill:#b4b4b3; stroke:none;" d="M93 370C89.0593 385.231 87.8728 420.491 106.171 428.258C117.62 433.118 133.643 430.1 146 434.029C160.754 438.719 176.727 458.1 191 441C171.351 440.998 160.602 426.281 143 420.356C129.647 415.861 117.046 419.778 107.329 408C101.442 400.865 97.5812 390.987 95.6119 382C94.6453 377.589 95.8236 373.855 93 370M350 370C348.045 384.776 343.421 410.342 327 416.397C317.01 420.08 306.434 417.186 296 422.259C281.105 429.501 270.474 440.998 253 441C267.051 457.944 282.521 439.23 297 434.356C309.731 430.07 326.081 433.245 337.829 428.258C342.191 426.407 345.126 420.985 347.215 417C353.152 405.674 357.903 381.373 350 370z"/>
<path style="fill:#6f4a23; stroke:none;" d="M383 370L383 374L384 374L383 370z"/>
<path style="fill:#a66828; stroke:none;" d="M31 374L31 380L32 380L31 374M412 375L412 380L413 380L412 375z"/>
<path style="fill:#a5a4a4; stroke:none;" d="M97 380L98 381L97 380z"/>
<path style="fill:#989897; stroke:none;" d="M98 382L99 383L98 382z"/>
<path style="fill:#979797; stroke:none;" d="M345 382L346 383L345 382z"/>
<path style="fill:#734c23; stroke:none;" d="M32 383L32 386L33 386L32 383z"/>
<path style="fill:#734b23; stroke:none;" d="M411 383L411 386L412 386L411 383z"/>
<path style="fill:#9e9e9e; stroke:none;" d="M99 384L100 385L99 384z"/>
<path style="fill:#9e9d9d; stroke:none;" d="M344 384L345 385L344 384z"/>
<path style="fill:#5e5e5e; stroke:none;" d="M90 385L90 393L91 393L90 385z"/>
<path style="fill:#5f5e5e; stroke:none;" d="M353 385L353 394L354 394L353 385z"/>
<path style="fill:#6c4723; stroke:none;" d="M60 387L60 390L61 390L60 387z"/>
<path style="fill:#6c4823; stroke:none;" d="M383 387L383 390L384 390L383 387z"/>
<path style="fill:#966026; stroke:none;" d="M33.3333 389.667L33.6667 390.333L33.3333 389.667z"/>
<path style="fill:#9e9e9e; stroke:none;" d="M102 389L103 390L102 389z"/>
<path style="fill:#9f9f9f; stroke:none;" d="M341 389L342 390L341 389z"/>
<path style="fill:#966026; stroke:none;" d="M410.333 389.667L410.667 390.333L410.333 389.667z"/>
<path style="fill:#975f26; stroke:none;" d="M34.3333 393.667L34.6667 394.333L34.3333 393.667z"/>
<path style="fill:#9d9d9d; stroke:none;" d="M105 393L106 394L105 393M338 393L339 394L338 393z"/>
<path style="fill:#7a7a7a; stroke:none;" d="M106 394L107 395L106 394z"/>
<path style="fill:#7a7a7b; stroke:none;" d="M337 394L338 395L337 394z"/>
<path style="fill:#727272; stroke:none;" d="M110 398L111 399L110 398z"/>
<path style="fill:#717171; stroke:none;" d="M333 398L334 399L333 398z"/>
<path style="fill:#8f8f8f; stroke:none;" d="M111 399L112 400L111 399z"/>
<path style="fill:#909090; stroke:none;" d="M332 399L333 400L332 399z"/>
<path style="fill:#a09f9f; stroke:none;" d="M115 402L116 403L115 402z"/>
<path style="fill:#a1a0a0; stroke:none;" d="M328 402L329 403L328 402z"/>
<path style="fill:#727272; stroke:none;" d="M117 403L118 404L117 403M326 403L327 404L326 403z"/>
<path style="fill:#7b7c7c; stroke:none;" d="M121 405L122 406L121 405z"/>
<path style="fill:#747474; stroke:none;" d="M124 405L124 407L126 407L124 405z"/>
<path style="fill:#757575; stroke:none;" d="M319 405L318 407L320 407L319 405z"/>
<path style="fill:#7b7c7c; stroke:none;" d="M322 405L323 406L322 405z"/>
<path style="fill:#e0e0e0; stroke:none;" d="M115 416L115 417L124 417L115 416z"/>
<path style="fill:#e2e1e1; stroke:none;" d="M181 416L181 417L188 417L181 416z"/>
<path style="fill:#e2e3e2; stroke:none;" d="M256 416L256 417L263 417L256 416z"/>
<path style="fill:#dfdfde; stroke:none;" d="M318 416L318 417L329 417L318 416z"/>
<path style="fill:#b4b4b3; stroke:none;" d="M183 417L183 418L190 426C205.171 427.098 197.444 441.48 201.782 448.996C207.227 458.428 220.567 457.722 230 456.891C250.784 455.062 234.721 427.491 254 426L261 418C239.294 408.895 238.724 443.969 222 443.969C210.819 443.969 210.226 433.07 204.61 426.004C199.081 419.048 191.527 417.071 183 417z"/>
<path style="fill:#000101; stroke:none;" d="M33 424L34 425L33 424M410 424L411 425L410 424z"/>
<path style="fill:#777777; stroke:none;" d="M106 429L106 430L119 430L106 429z"/>
<path style="fill:#818181; stroke:none;" d="M324 429L324 430L338 430L324 429z"/>
<path style="fill:#000101; stroke:none;" d="M37 430L38 431L37 430z"/>
<path style="fill:#9c9c9c; stroke:none;" d="M192.333 430.667L192.667 431.333L192.333 430.667z"/>
<path style="fill:#9d9c9c; stroke:none;" d="M251.333 430.667L251.667 431.333L251.333 430.667z"/>
<path style="fill:#686867; stroke:none;" d="M313.667 430.333L314.333 430.667L313.667 430.333z"/>
<path style="fill:#000101; stroke:none;" d="M406 430L407 431L406 430z"/>
<path style="fill:#dbdbda; stroke:none;" d="M192 432L192 437L193 437L192 432z"/>
<path style="fill:#000101; stroke:none;" d="M40 434L41 435L40 434z"/>
<path style="fill:#010101; stroke:none;" d="M403 434L404 435L403 434z"/>
<path style="fill:#991915; stroke:none;" d="M138 448C139.545 465.159 154.141 463.552 167 463C162.305 453.371 148.171 448.217 138 448z"/>
<path style="fill:#696969; stroke:none;" d="M169 448L169 449L175 449L169 448z"/>
<path style="fill:#858686; stroke:none;" d="M269 448L269 449L275 449L269 448z"/>
<path style="fill:#991915; stroke:none;" d="M277 463C289.667 465.352 304.595 463.598 306 448C295.623 448.087 281.809 453.138 277 463z"/>
<path style="fill:#754d24; stroke:none;" d="M83.3333 452.667L83.6667 453.333L83.3333 452.667z"/>
<path style="fill:#764d25; stroke:none;" d="M360.333 452.667L360.667 453.333L360.333 452.667z"/>
<path style="fill:#000101; stroke:none;" d="M65 457L66 458L65 457z"/>
<path style="fill:#010101; stroke:none;" d="M378 457L379 458L378 457z"/>
<path style="fill:#959695; stroke:none;" d="M115 468L116 469L115 468z"/>
<path style="fill:#929292; stroke:none;" d="M198 468L199 469L198 468z"/>
<path style="fill:#767676; stroke:none;" d="M201 468L202 469L201 468z"/>
<path style="fill:#747474; stroke:none;" d="M242 468L243 469L242 468z"/>
<path style="fill:#929292; stroke:none;" d="M245 468L246 469L245 468z"/>
<path style="fill:#949495; stroke:none;" d="M328 468L329 469L328 468z"/>
<path style="fill:#717171; stroke:none;" d="M240 469L241 470L240 469z"/>
<path style="fill:#777777; stroke:none;" d="M112 470L113 471L112 470z"/>
<path style="fill:#929292; stroke:none;" d="M120 470L121 471L120 470z"/>
<path style="fill:#616161; stroke:none;" d="M205.667 470.333L206.333 470.667L205.667 470.333z"/>
<path style="fill:#a5a4a4; stroke:none;" d="M237.667 470.333L238.333 470.667L237.667 470.333z"/>
<path style="fill:#929292; stroke:none;" d="M323 470L324 471L323 470z"/>
<path style="fill:#777677; stroke:none;" d="M331 470L332 471L331 470z"/>
<path style="fill:#a4a4a4; stroke:none;" d="M111 471L112 472L111 471z"/>
<path style="fill:#7a797a; stroke:none;" d="M209.667 471.333L210.333 471.667L209.667 471.333z"/>
<path style="fill:#737373; stroke:none;" d="M221.667 471.333L222.333 471.667L221.667 471.333z"/>
<path style="fill:#a09f9e; stroke:none;" d="M233.667 471.333L234.333 471.667L233.667 471.333z"/>
<path style="fill:#a4a3a3; stroke:none;" d="M332 471L333 472L332 471z"/>
<path style="fill:#828283; stroke:none;" d="M315 474L316 475L315 474z"/>
<path style="fill:#bebebe; stroke:none;" d="M312.667 475.333L313.333 475.667L312.667 475.333z"/>
<path style="fill:#a5a5a5; stroke:none;" d="M106 476L107 477L106 476z"/>
<path style="fill:#4f4f4f; stroke:none;" d="M134.667 476.333L135.333 476.667L134.667 476.333z"/>
<path style="fill:#cacac9; stroke:none;" d="M309.667 476.333L310.333 476.667L309.667 476.333z"/>
<path style="fill:#a7a6a6; stroke:none;" d="M337 476L338 477L337 476z"/>
<path style="fill:#7e7e7e; stroke:none;" d="M105 477L106 478L105 477z"/>
<path style="fill:#999998; stroke:none;" d="M137.667 477.333L138.333 477.667L137.667 477.333z"/>
<path style="fill:#6e6e6d; stroke:none;" d="M303 477L303 478L306 478L303 477z"/>
<path style="fill:#7b7c7c; stroke:none;" d="M338 477L339 478L338 477z"/>
<path style="fill:#c5c5c5; stroke:none;" d="M142.667 478.333L143.333 478.667L142.667 478.333z"/>
<path style="fill:#636262; stroke:none;" d="M144 478L144 479L149 479L144 478z"/>
<path style="fill:#777777; stroke:none;" d="M160 478L160 479L165 479L160 478z"/>
<path style="fill:#bebebe; stroke:none;" d="M165.667 478.333L166.333 478.667L165.667 478.333z"/>
<path style="fill:#bebebf; stroke:none;" d="M276.667 478.333L277.333 478.667L276.667 478.333z"/>
<path style="fill:#898989; stroke:none;" d="M278 478L278 479L281 479L278 478z"/>
<path style="fill:#545454; stroke:none;" d="M294 478L294 479L297 479L294 478z"/>
<path style="fill:#8d8d8d; stroke:none;" d="M297 478L297 479L300 479L297 478z"/>
<path style="fill:#7b7c7c; stroke:none;" d="M173 479L174 480L173 479M270 479L271 480L270 479z"/>
<path style="fill:#9a9a9a; stroke:none;" d="M103 480L104 481L103 480z"/>
<path style="fill:#999999; stroke:none;" d="M340 480L341 481L340 480z"/>
<path style="fill:#919191; stroke:none;" d="M188 482L189 483L188 482z"/>
<path style="fill:#929292; stroke:none;" d="M255 482L256 483L255 482z"/>
<path style="fill:#845525; stroke:none;" d="M67.3333 487.667L67.6667 488.333L67.3333 487.667M376.333 487.667L376.667 488.333L376.333 487.667z"/>
<path style="fill:#a3a2a2; stroke:none;" d="M99.3333 488.667L99.6667 489.333L99.3333 488.667z"/>
<path style="fill:#a1a1a1; stroke:none;" d="M344.333 488.667L344.667 489.333L344.333 488.667z"/>
<path style="fill:#8f8f8f; stroke:none;" d="M183 489L184 490L183 489z"/>
<path style="fill:#8f9090; stroke:none;" d="M260 489L261 490L260 489z"/>
<path style="fill:#885827; stroke:none;" d="M66 492L66 495L67 495L66 492z"/>
<path style="fill:#acacad; stroke:none;" d="M98 492L98 504L99 504L98 492z"/>
<path style="fill:#b4b4b3; stroke:none;" d="M130 492L130 493C134.405 496.356 142.257 501.866 142.573 507.999C142.9 514.328 134.778 516.715 130 517.985C117.664 521.263 105.176 515.767 100 504L99 504L106 528C118.175 526.428 129.874 525.764 141 532.479C146.226 535.633 150.042 540.507 155 544C160.14 522.413 153.489 497.922 130 492M289 544C296.276 538.875 301.312 532.39 310 529.345C315.015 527.587 320.642 526.154 326 526.18C329.347 526.196 333.608 528.508 336.775 526.882C342.722 523.829 344.741 509.945 345 504L344 504C339.108 515.122 326.914 520.779 315 518.532C309.994 517.588 301.098 514.365 301.427 507.999C301.743 501.866 309.595 496.356 314 493C309.341 492.04 304.729 495.658 301 498.194C287.243 507.553 285.339 528.621 289 544z"/>
<path style="fill:#adadad; stroke:none;" d="M345 492L345 504L346 504L345 492z"/>
<path style="fill:#757676; stroke:none;" d="M186 493L187 494L186 493z"/>
<path style="fill:#767676; stroke:none;" d="M257 493L258 494L257 493z"/>
<path style="fill:#855524; stroke:none;" d="M65 498L65 502L66 502L65 498z"/>
<path style="fill:#9b9b9a; stroke:none;" d="M189 498L190 499L189 498M254 498L255 499L254 498z"/>
<path style="fill:#865625; stroke:none;" d="M378 498L378 502L379 502L378 498z"/>
<path style="fill:#666666; stroke:none;" d="M196.333 500.667L196.667 501.333L196.333 500.667z"/>
<path style="fill:#676766; stroke:none;" d="M247.333 500.667L247.667 501.333L247.333 500.667z"/>
<path style="fill:#747474; stroke:none;" d="M192 503L193 504L192 503M251 503L252 504L251 503z"/>
<path style="fill:#818181; stroke:none;" d="M197.333 504.667L197.667 505.333L197.333 504.667z"/>
<path style="fill:#828383; stroke:none;" d="M246.333 504.667L246.667 505.333L246.333 504.667z"/>
<path style="fill:#353435; stroke:none;" d="M150 505L151 506L150 505z"/>
<path style="fill:#949494; stroke:none;" d="M151 505L152 506L151 505z"/>
<path style="fill:#808081; stroke:none;" d="M193 505L194 506L193 505z"/>
<path style="fill:#7e7e7f; stroke:none;" d="M250 505L251 506L250 505z"/>
<path style="fill:#535352; stroke:none;" d="M151 506L151 508L153 506L151 506z"/>
<path style="fill:#969696; stroke:none;" d="M291 506L292 507L291 506z"/>
<path style="fill:#525252; stroke:none;" d="M292.333 506.667L292.667 507.333L292.333 506.667z"/>
<path style="fill:#a3a2a2; stroke:none;" d="M153 507L154 508L153 507z"/>
<path style="fill:#7f7f7f; stroke:none;" d="M194 507L195 508L194 507z"/>
<path style="fill:#7e7e7f; stroke:none;" d="M249 507L250 508L249 507z"/>
<path style="fill:#a4a4a4; stroke:none;" d="M290 507L291 508L290 507z"/>
<path style="fill:#777676; stroke:none;" d="M195 509L196 510L195 509z"/>
<path style="fill:#bdbdbd; stroke:none;" d="M198 509L198 516L199 516L198 509z"/>
<path style="fill:#bfbfbf; stroke:none;" d="M245 509L245 516L246 516L245 509z"/>
<path style="fill:#777676; stroke:none;" d="M248 509L249 510L248 509z"/>
<path style="fill:#949495; stroke:none;" d="M157 512L158 513L157 512M286 512L287 513L286 512z"/>
<path style="fill:#878888; stroke:none;" d="M159 515L160 516L159 515z"/>
<path style="fill:#888989; stroke:none;" d="M284 515L285 516L284 515z"/>
<path style="fill:#b36e28; stroke:none;" d="M378 517L378 523L379 523L378 517z"/>
<path style="fill:#979797; stroke:none;" d="M162 520L163 521L162 520z"/>
<path style="fill:#989897; stroke:none;" d="M281 520L282 521L281 520z"/>
<path style="fill:#919090; stroke:none;" d="M163 522L164 523L163 522z"/>
<path style="fill:#909090; stroke:none;" d="M280 522L281 523L280 522z"/>
<path style="fill:#9f9e9e; stroke:none;" d="M164 524L165 525L164 524z"/>
<path style="fill:#9e9e9e; stroke:none;" d="M279 524L280 525L279 524z"/>
<path style="fill:#8a5826; stroke:none;" d="M66.3333 526.667L66.6667 527.333L66.3333 526.667z"/>
<path style="fill:#949494; stroke:none;" d="M114 526L114 527L122 527L114 526z"/>
<path style="fill:#939394; stroke:none;" d="M322 526L322 527L330 527L322 526z"/>
<path style="fill:#585857; stroke:none;" d="M315.667 527.333L316.333 527.667L315.667 527.333z"/>
<path style="fill:#494949; stroke:none;" d="M156 528L156 534L157 534L156 528z"/>
<path style="fill:#4a494a; stroke:none;" d="M287 528L287 534L288 534L287 528z"/>
<path style="fill:#696969; stroke:none;" d="M168.333 535.667L168.667 536.333L168.333 535.667z"/>
<path style="fill:#6a6a6a; stroke:none;" d="M275.333 535.667L275.667 536.333L275.333 535.667z"/>
<path style="fill:#a7692a; stroke:none;" d="M68.3333 536.667L68.6667 537.333L68.3333 536.667z"/>
<path style="fill:#a66828; stroke:none;" d="M375.333 536.667L375.667 537.333L375.333 536.667z"/>
<path style="fill:#000101; stroke:none;" d="M55 538L56 539L55 538M388 538L389 539L388 538z"/>
<path style="fill:#757575; stroke:none;" d="M169.333 539.667L169.667 540.333L169.333 539.667z"/>
<path style="fill:#767676; stroke:none;" d="M274.333 539.667L274.667 540.333L274.333 539.667z"/>
<path style="fill:#4e4e4e; stroke:none;" d="M155 542L154 545L155 542z"/>
<path style="fill:#787878; stroke:none;" d="M288 542L290 545L288 542z"/>
<path style="fill:#8c8c8c; stroke:none;" d="M170.333 544.667L170.667 545.333L170.333 544.667M273.333 544.667L273.667 545.333L273.333 544.667z"/>
<path style="fill:#515150; stroke:none;" d="M273.333 546.667L273.667 547.333L273.333 546.667z"/>
<path style="fill:#989898; stroke:none;" d="M132 548L132 549L135 549L132 548z"/>
<path style="fill:#979797; stroke:none;" d="M309.667 548.333L310.333 548.667L309.667 548.333z"/>
<path style="fill:#8f8f8f; stroke:none;" d="M318.667 548.333L319.333 548.667L318.667 548.333z"/>
<path style="fill:#7f7f7f; stroke:none;" d="M121 549L122 550L121 549M322 549L323 550L322 549z"/>
<path style="fill:#9e9d9d; stroke:none;" d="M120.333 550.667L120.667 551.333L120.333 550.667z"/>
<path style="fill:#a3a2a2; stroke:none;" d="M139 550L140 551L139 550z"/>
<path style="fill:#9e9d9d; stroke:none;" d="M323.333 550.667L323.667 551.333L323.333 550.667z"/>
<path style="fill:#8a8a8a; stroke:none;" d="M141 551L142 552L141 551z"/>
<path style="fill:#8c8c8c; stroke:none;" d="M302 551L303 552L302 551z"/>
<path style="fill:#000000; stroke:none;" d="M31 556L31 674L32 674C40.7551 648.069 43.5558 618.969 48.25 592C50.2116 580.731 55.3852 567.145 52 556L31 556z"/>
<path style="fill:#f49738; stroke:none;" d="M52 556C54.5365 569.736 49.4178 585.36 46.8032 599C41.8502 624.84 37.9232 650.688 31 676C37.1901 673.654 51.9423 666.149 54.6366 659.855C59.887 647.589 52.4438 616.066 71 616L65 654L85.892 638.905L90.6111 614L101 556C96.6778 556 85.137 553.951 82.1752 557.603C73.2427 568.619 84.5643 597.931 65 598L72 556L52 556z"/>
<path style="fill:#000000; stroke:none;" d="M72 556L65 598L73.4005 596.972L76.5756 586L82 556L72 556M101 556L90.4244 614L85.2006 638.816L65 654L71 616C52.4041 616.014 59.5781 646.67 54.4174 659.482C51.9112 665.704 38.4714 671.309 33 675L33 676L396 676L396 564L395 564L386.414 614L381.411 635.816L365 647.72L329 672C337.173 646.27 339.633 617.567 344.424 591C346.404 580.026 351.3 566.863 348 556L342 556C348.669 566.74 344.514 573.065 344 585L324 585L326 575C315.748 575.008 316.302 579.103 314 588L324 588L321 607L311 607C309.308 615.727 307.927 621.245 316 627L319 612L339 612L334.262 630.815L307 650L306 650C301.515 644.135 290.916 639.051 288.693 631.961C286.857 626.105 290.667 615.93 291.803 610C295.51 590.663 296.064 571.625 308 556C296.217 556.042 297.223 568.376 296 578L282 578L275.389 617L271.411 632.674L251 647L263 578L250 578L253 556C246.497 560.59 246.363 580.311 245.08 588C243.046 600.19 243.03 622.449 236.062 632.675C231.964 638.688 222.259 643.515 216 647L213 616L212 616L207 647L190.693 631.911L194 609L203 556L202 556C198.928 572.306 195.863 588.642 193.081 605C191.827 612.372 191.711 623.38 187.987 629.907C184.889 635.335 166.615 647.923 160.285 648.312C155.707 648.593 142.998 636.108 141.773 631.911C139.982 625.774 144.009 615.196 145.197 609C148.568 591.413 150.716 573.388 155 556L146 556C155.392 571.126 145.808 594.013 142.919 611C141.849 617.292 141.683 626.483 138.143 631.907C133.773 638.602 123.509 642.613 117 647L122 618L113 618L108 647C103.43 643.518 94.4618 637.602 92.6929 631.961C90.8569 626.105 94.6666 615.93 95.8032 610C99.5097 590.663 100.064 571.625 112 556L101 556z"/>
<path style="fill:#f49738; stroke:none;" d="M108 647L113 618L122 618L117 647C123.538 643.908 133.989 638.899 138.143 632.816C145.414 622.166 145.141 599.66 147.424 587C148.717 579.836 153.898 566.42 149.237 560.059C144.225 553.219 121.741 554.465 114 556.314C102.194 559.134 102.302 573.429 100.576 583C98.5312 594.335 96.5065 605.679 94.3889 617C93.5406 621.535 90.956 628.412 92.6181 632.911C94.633 638.364 103.021 644.417 108 647M202 556L182 556L170 627C160.3 620.143 163.174 613.258 164.919 603C167.54 587.59 172.328 571.616 173 556C168.77 556 157.961 554.056 155.013 557.603C152.059 561.158 152.22 569.559 151.389 574C148.773 587.985 146.19 601.983 143.75 616C142.858 621.127 139.299 629.936 142.607 634.576C145.509 638.645 154.716 648.532 160 648.695C163.106 648.791 166.5 645.744 169 644.192C177.132 639.144 187.653 635.075 189.61 625C191.483 615.36 193.273 605.681 194.919 596C197.186 582.673 200.296 569.411 202 556z"/>
<path style="fill:#000000; stroke:none;" d="M173 556C171.703 572.293 167.396 588.925 164.389 605C162.697 614.043 159.911 622.279 170 627L182 556L173 556z"/>
<path style="fill:#f49738; stroke:none;" d="M203 556C202.216 574.202 196.659 593.067 193.424 611C192.37 616.845 188.446 627.13 190.618 632.83C192.726 638.361 201.942 644.379 207 647L212 616L213 616L216 647L236.062 633.485L241.25 610L251 556L232 556L228 582L222.4 557.028L203 556z"/>
<path style="fill:#000000; stroke:none;" d="M223 556L227 582L228 582L232 556L223 556z"/>
<path style="fill:#f49738; stroke:none;" d="M253 556L250 578L263 578C257.511 599.214 251.181 625.096 251 647L272.012 632.674L275.919 615L282 578L296 578L300 556L253 556M306 650L307 650L334.836 630.815L339 612L319 612L316 627C308.923 619.838 309.796 616.326 311 607L321 607L324 588L314 588C316.778 579.794 315.906 575.036 326 575L324 585L344 585C344.524 578.417 349.161 568.225 346.396 562.005C341.766 551.588 310.229 553.615 303.144 560.444C298.786 564.645 298.666 571.361 297.611 577C295.183 589.984 292.92 603.001 290.576 616C289.71 620.801 286.862 628.157 288.618 632.911C291.062 639.525 300.915 645.316 306 650M348 556C350.536 569.736 345.418 585.36 342.803 599C338.142 623.32 334.519 647.867 329 672L367 647.025L382.012 635.816L386.92 612L396 562C381.006 553.654 364.926 556 348 556z"/>
<path style="fill:#000000; stroke:none;" d="M387 556L387 557L396 562L396 556L387 556M116 599L126 599L130 575C116.27 575.011 118.813 588.127 116 599M365 575L355 630C371.082 621.047 372.613 592.423 374 575L365 575z"/>
</svg>
